PathFileType	4	(X/Y/Z)	H:\MAC\Pilotos\MDrajagopal3\static1.trc																																																																																																																																																																																																																																								
DataRate	CameraRate	NumFrames	NumMarkers	Units	OrigDataRate	OrigDataStartFrame	OrigNumFrames																																																																																																																																																																																																																																				
150	150	4	78	mm	150	188	1500																																																																																																																																																																																																																																				
Frame#	Time	RACR			LACR			C7			CLAV			RASH			RPSH			LASH			LPSH			RUA1			RUA2			RUA3			RLEL			RMEL			RFAsuperior			RFAradius			RFAulna			LUA1			LUA2			LUA3			LLEL			LMEL			LFAsuperior			LFAradius			LFAulna			RASI			LASI			RPSI			LPSI			RTH1			RTH2			RTH3			RLFC			RMFC			RTB1			RTB2			RTB3			RLMAL			RMMAL			RCAL			RTOE			RMT5			LTH1			LTH2			LTH3			LLFC			LMFC			LTB1			LTB2			LTB3			LLMAL			LMMAL			LCAL			LTOE			LMT5			RSJC			LSJC			RHJC			LHJC			RKJC			LKJC			RAJC			LAJC			REJC			LEJC			Mid_ASIS			Mid_PSIS			RASHv			RPSHv			LPSHv			RLFCv			RMFCv			RLMALv			RMMALv			LLFCv			LMFCv			LLMALv			LMMALv			LASHv		
		X1	Y1	Z1	X2	Y2	Z2	X3	Y3	Z3	X4	Y4	Z4	X5	Y5	Z5	X6	Y6	Z6	X7	Y7	Z7	X8	Y8	Z8	X9	Y9	Z9	X10	Y10	Z10	X11	Y11	Z11	X12	Y12	Z12	X13	Y13	Z13	X14	Y14	Z14	X15	Y15	Z15	X16	Y16	Z16	X17	Y17	Z17	X18	Y18	Z18	X19	Y19	Z19	X20	Y20	Z20	X21	Y21	Z21	X22	Y22	Z22	X23	Y23	Z23	X24	Y24	Z24	X25	Y25	Z25	X26	Y26	Z26	X27	Y27	Z27	X28	Y28	Z28	X29	Y29	Z29	X30	Y30	Z30	X31	Y31	Z31	X32	Y32	Z32	X33	Y33	Z33	X34	Y34	Z34	X35	Y35	Z35	X36	Y36	Z36	X37	Y37	Z37	X38	Y38	Z38	X39	Y39	Z39	X40	Y40	Z40	X41	Y41	Z41	X42	Y42	Z42	X43	Y43	Z43	X44	Y44	Z44	X45	Y45	Z45	X46	Y46	Z46	X47	Y47	Z47	X48	Y48	Z48	X49	Y49	Z49	X50	Y50	Z50	X51	Y51	Z51	X52	Y52	Z52	X53	Y53	Z53	X54	Y54	Z54	X55	Y55	Z55	X56	Y56	Z56	X57	Y57	Z57	X58	Y58	Z58	X59	Y59	Z59	X60	Y60	Z60	X61	Y61	Z61	X62	Y62	Z62	X63	Y63	Z63	X64	Y64	Z64	X65	Y65	Z65	X66	Y66	Z66	X67	Y67	Z67	X68	Y68	Z68	X69	Y69	Z69	X70	Y70	Z70	X71	Y71	Z71	X72	Y72	Z72	X73	Y73	Z73	X74	Y74	Z74	X75	Y75	Z75	X76	Y76	Z76	X77	Y77	Z77	X78	Y78	Z78
																																																																																																																																																																																																																																											
188	1.247	702.09082	1392.82849	1385.18005	712.51282	1396.29395	1049.32373	655.6322	1413.87317	1207.36975	803.68744	1370.70032	1259.94507	772.32605	1365.28979	1404.88965	665.10187	1358.11731	1396.19409	785.83032	1379.25928	1042.62134	682.76019	1357.53821	1030.20215	705.51208	1274.4762	1459.49573	746.53619	1206.08606	1479.00293	673.36676	1164.27014	1452.7821	689.63104	1119.81299	1493.01514	747.80109	1091.88098	1432.44727	761.50073	1042.76489	1577.25671	782.01862	968.216	1629.59827	745.56451	916.20966	1587.94922	712.74908	1298.42139	976.84894	754.71783	1213.91016	947.48438	694.19391	1170.99744	986.9989	723.64569	1136.19019	921.00256	755.07086	1094.35339	996.50482	784.72766	1030.33118	842.69196	830.83844	969.3363	816.77429	781.31641	919.48279	837.77271	830.50256	903.5874	1337.35461	834.4422	898.5575	1110.49329	655.83923	927.55914	1261.09265	653.72546	926.89709	1179.14233	735.35474	798.69739	1389.11694	690.6344	640.42365	1371.23413	757.07526	610.50659	1399.85486	751.43878	470.18524	1392.03613	757.49811	450.05417	1263.77026	784.51813	343.22974	1355.0575	702.84637	327.23239	1425.95117	738.34253	200.35648	1405.49634	684.8775	82.72827	1407.6604	710.13232	86.92373	1319.24719	636.29236	36.14462	1372.20496	845.58429	36.90108	1377.85498	807.00922	33.35717	1425.08179	750.37201	806.07404	1048.10657	701.82098	657.63184	1059.78223	752.4552	580.87122	1045.13538	755.76819	467.62488	1053.19226	740.96185	450.6488	1178.47815	782.32208	353.47824	1095.26343	691.24438	312.67172	1018.99207	746.13666	183.51387	1058.45715	692.66614	77.14014	1044.20117	712.12274	87.3064	1132.59814	643.59357	45.90055	1074.98157	844.94794	36.91297	1079.13806	817.53821	29.6907	1031.12085	718.71399	1361.70361	1400.54187	734.29529	1368.3988	1036.41174	737.726	839.922	1321.065	742.093	839.812	1117.011	754.46844	460.11969	1327.9032	748.36505	459.13684	1115.83521	697.50494	84.826	1363.45374	702.39447	82.22327	1088.39966	718.71606	1105.84705	1462.7312	739.35828	1115.27185	958.75366	832.47235	901.07245	1223.92395	654.78235	927.22809	1220.11743	810.34784	1312.06372	1444.2489	702.69965	1318.72363	1417.2522	746.55762	1399.15918	995.25275	723.65704	501.55905	1414.46826	782.02673	460.14999	1298.13635	703.25098	67.21832	1447.4021	729.05444	62.27363	1359.58215	772.57745	515.23242	1012.17218	781.65784	485.04694	1141.48914	710.75793	60.33879	1030.87756	747.26093	73.48241	1114.27478	831.06122	1377.30701	943.18506
189	1.253	702.05261	1392.82678	1385.15466	712.48077	1396.2821	1049.30273	655.59808	1413.86487	1207.3429	803.64783	1370.70483	1259.93567	772.28217	1365.29297	1404.87769	665.06439	1358.11365	1396.17212	785.7923	1379.26685	1042.60535	682.74457	1357.53113	1030.17871	705.47607	1274.47119	1459.48145	746.50256	1206.08875	1478.99512	673.33807	1164.27063	1452.76794	689.61102	1119.80994	1493.00183	747.76917	1091.89429	1432.43054	761.47382	1042.7699	1577.22803	781.99994	968.21387	1629.57922	745.56158	916.21838	1587.93359	712.72571	1298.41516	976.82697	754.69806	1213.89185	947.4765	694.16534	1170.99084	986.99084	723.61353	1136.17627	920.99005	755.03876	1094.34949	996.49622	784.70532	1030.31873	842.6911	830.8053	969.32294	816.77313	781.29968	919.46185	837.77728	830.47552	903.58167	1337.35925	834.4184	898.55316	1110.49866	655.8244	927.56104	1261.07092	653.71106	926.89282	1179.13452	735.33429	798.69678	1389.11707	690.61078	640.42615	1371.23315	757.05536	610.50604	1399.86047	751.42773	470.17804	1392.03284	757.47858	450.05469	1263.7666	784.52148	343.22891	1355.05347	702.84351	327.23517	1425.94214	738.33258	200.36494	1405.49963	684.86896	82.73547	1407.66431	710.1333	86.92001	1319.25037	636.29944	36.14178	1372.20361	845.58301	36.90068	1377.85938	807.00977	33.35095	1425.07947	750.35712	806.08344	1048.10376	701.80963	657.63055	1059.77185	752.45258	580.87457	1045.12146	755.76678	467.63605	1053.18616	740.94971	450.66031	1178.46912	782.32159	353.49164	1095.26221	691.23572	312.67548	1018.9845	746.13629	183.51254	1058.45313	692.66736	77.13241	1044.19849	712.13745	87.28841	1132.60315	643.5882	45.90169	1074.9585	844.94244	36.91875	1079.12878	817.53131	29.68829	1031.12	718.67328	1361.70325	1400.5249	734.26843	1368.39905	1036.39209	737.697	839.921	1321.061	742.078	839.808	1117.007	754.45313	460.11636	1327.89978	748.35828	459.14819	1115.82764	697.50116	84.82774	1363.45728	702.4024	82.21041	1088.40076	718.69006	1105.85217	1462.71619	739.32611	1115.26294	958.7431	832.44696	901.06738	1223.92896	654.76776	927.22693	1220.10278	810.31183	1312.06262	1444.24451	702.66394	1318.71643	1417.23547	746.53589	1399.15405	995.22156	723.62634	501.55899	1414.46997	782.00128	460.14731	1298.1416	703.24323	67.22198	1447.40173	729.05328	62.2738	1359.58386	772.57623	515.24445	1012.15643	781.65448	485.05338	1141.47229	710.76984	60.34782	1030.88245	747.27295	73.49463	1114.27917	831.04504	1377.29175	943.16718
190	1.26	702.0119	1392.82507	1385.13684	712.45233	1396.28137	1049.28442	655.56329	1413.86389	1207.32813	803.61115	1370.70435	1259.91687	772.23834	1365.29883	1404.85657	665.03229	1358.10889	1396.15906	785.76215	1379.2627	1042.58899	682.70679	1357.52783	1030.16333	705.43848	1274.47351	1459.4679	746.47699	1206.09216	1478.97534	673.31262	1164.25903	1452.75696	689.57404	1119.81873	1492.98535	747.74762	1091.90051	1432.40771	761.45276	1042.77588	1577.21655	781.98895	968.23077	1629.55994	745.53961	916.22223	1587.91577	712.69568	1298.40967	976.80566	754.67365	1213.8855	947.47247	694.13525	1170.98755	986.97833	723.58441	1136.16284	920.9848	755.02045	1094.34204	996.48962	784.68353	1030.30566	842.68744	830.79041	969.30835	816.76898	781.28613	919.4422	837.77771	830.44531	903.58508	1337.35059	834.41296	898.5578	1110.49133	655.80048	927.55835	1261.06116	653.69519	926.89386	1179.12256	735.31342	798.69208	1389.1095	690.58844	640.42108	1371.23291	757.02789	610.51312	1399.86255	751.41827	470.18796	1392.04077	757.48273	450.05908	1263.77539	784.50549	343.23215	1355.06006	702.83453	327.23303	1425.94519	738.32739	200.35625	1405.50098	684.87262	82.73347	1407.66467	710.11896	86.92602	1319.24084	636.29541	36.14242	1372.20703	845.58405	36.89465	1377.85681	806.99945	33.36187	1425.0896	750.34302	806.0835	1048.10266	701.79218	657.63495	1059.76196	752.43402	580.87805	1045.11987	755.74854	467.63293	1053.17664	740.92694	450.65201	1178.48071	782.31042	353.4913	1095.25647	691.23425	312.68063	1018.97491	746.13708	183.52357	1058.45532	692.6618	77.14683	1044.18347	712.11719	87.31066	1132.59717	643.58508	45.91074	1074.96924	844.94995	36.91701	1079.13647	817.5318	29.6845	1031.11731	718.63531	1361.70386	1400.50781	734.23444	1368.39526	1036.3761	737.674	839.92	1321.05	742.068	839.812	1116.996	754.4505	460.1235	1327.90808	748.33777	459.14249	1115.82861	697.49579	84.82974	1363.45276	702.38947	82.22874	1088.39026	718.66083	1105.85962	1462.69653	739.30243	1115.25244	958.73718	832.42914	901.07147	1223.92102	654.74786	927.22614	1220.09192	810.26678	1312.08008	1444.21716	702.61572	1318.71936	1417.22339	746.50134	1399.15076	995.19666	723.60065	501.55588	1414.47864	781.97913	460.1369	1298.15466	703.24292	67.21822	1447.40125	729.05176	62.27405	1359.58276	772.56274	515.24432	1012.15747	781.61969	485.05243	1141.47461	710.75476	60.35018	1030.86877	747.2514	73.49525	1114.26855	831.02081	1377.28394	943.16089
191	1.267	701.96796	1392.82617	1385.12952	712.41711	1396.27417	1049.27209	655.52588	1413.85168	1207.31079	803.56787	1370.71924	1259.90332	772.20331	1365.28857	1404.83081	664.99542	1358.10022	1396.15344	785.72913	1379.26953	1042.5647	682.68726	1357.51465	1030.1366	705.41058	1274.47009	1459.44568	746.44568	1206.09033	1478.96558	673.27869	1164.26221	1452.73413	689.56409	1119.80688	1492.96143	747.72186	1091.89978	1432.3866	761.44098	1042.77844	1577.20007	781.96838	968.22845	1629.54236	745.52802	916.21906	1587.89856	712.67029	1298.40051	976.78857	754.64063	1213.87634	947.45233	694.11194	1170.97473	986.9729	723.57007	1136.14685	920.97321	754.98346	1094.33801	996.48096	784.66248	1030.29163	842.68701	830.776	969.29877	816.77728	781.27228	919.42755	837.77771	830.41876	903.59076	1337.3573	834.39343	898.5603	1110.49695	655.78052	927.55444	1261.05518	653.67291	926.88721	1179.11536	735.2854	798.70099	1389.10901	690.5777	640.4184	1371.22937	757.01422	610.5152	1399.85425	751.40802	470.18253	1392.03308	757.47345	450.06036	1263.77539	784.49658	343.22571	1355.06311	702.83228	327.22647	1425.95129	738.32794	200.36237	1405.49976	684.87201	82.72903	1407.66028	710.12292	86.92203	1319.24805	636.29651	36.13951	1372.20081	845.58405	36.8964	1377.86218	807.00342	33.35773	1425.08179	750.33136	806.08032	1048.09583	701.78638	657.63489	1059.75867	752.43188	580.87061	1045.12781	755.73676	467.63678	1053.17859	740.91284	450.65552	1178.47461	782.30188	353.48264	1095.25952	691.23218	312.6752	1018.96906	746.12396	183.51077	1058.45654	692.6546	77.12913	1044.18042	712.13885	87.29375	1132.59338	643.58984	45.89961	1074.96741	844.94702	36.91611	1079.13245	817.52985	29.69095	1031.12109	718.59937	1361.69434	1400.49207	734.20819	1368.39209	1036.35059	737.651	839.922	1321.051	742.054	839.809	1116.998	754.44073	460.12146	1327.9043	748.32483	459.14615	1115.82654	697.49744	84.82553	1363.45422	702.39673	82.21143	1088.38684	718.64294	1105.85339	1462.67407	739.27679	1115.24243	958.72711	832.40607	901.07556	1223.92712	654.72675	927.22083	1220.08533	810.24457	1312.06787	1444.2124	702.59534	1318.71277	1417.19739	746.48029	1399.14258	995.16595	723.6095	501.56284	1414.47253	781.99103	460.15332	1298.14673	703.24011	67.21108	1447.40759	729.04352	62.26751	1359.58752	772.56683	515.23969	1012.17218	781.60956	485.05655	1141.49231	710.7392	60.3439	1030.86865	747.22754	73.48855	1114.27222	830.98846	1377.27222	943.1134
